<?xml version="1.0" encoding="UTF-8"?>
<svg id="Layer_2" data-name="Layer 2" xmlns="http://www.w3.org/2000/svg" viewBox="0 0 677.65 159.1">
  <defs>
    <style>
      .cls-1 {
        fill: #fff;
      }
    </style>
  </defs>
  <g id="Layer_1-2" data-name="Layer 1">
    <g>
      <g>
        <path class="cls-1" d="M360.7,47.7l.65-26.93c.05-4.47-1.74-5.34-5.62-5.67v-.44h12.32c.55,1.64,1.14,3.43,1.96,5.51l9.92,26.06,9.49-24.97c.87-2.34,1.85-5.29,2.02-6.6h11.12v.44c-3.6.22-4.42.76-4.36,3l.65,32.82c.05,2.24.71,2.78,4.36,3v.44h-14.56v-.44c3.65-.22,4.47-.76,4.42-3l-.71-33.8-14.39,37.23h-1.04l-14.28-37.23-.76,30.58c-.05,4.47,1.69,5.89,6.49,6.21v.44h-13.3v-.44c3.87-.33,5.56-1.74,5.62-6.21Z"/>
        <path class="cls-1" d="M433.96,49.72l-3.98-10.9h-13.08l-3,8.12c-1.69,4.47-.76,6.65,4.53,6.98v.44h-12.48v-.44c2.78-.33,4.63-1.96,6.71-7.3l9.92-26.88-1.25-3.22c1.91-.44,4.03-1.47,5.18-2.94h.38c.49,1.91.76,2.73,2.13,6.27l10.19,27.31c2.07,5.34,2.94,6.43,6.49,6.76v.44h-15.37v-.44c4.47-.27,4.63-1.47,3.65-4.2ZM429.55,37.73l-6.16-16.79-6.11,16.79h12.27Z"/>
        <path class="cls-1" d="M444.25,40.29v-22.19c0-2.24-.76-2.78-4.42-3v-.44h14.56v.44c-3.6.22-4.36.76-4.36,3v21.86c0,9.32,4.85,13.03,11.39,13.03,6.05,0,11.18-3.16,11.18-12.92v-18.75c0-4.47-1.74-5.89-6.6-6.21v-.44h13.41v.44c-3.87.33-5.62,1.74-5.62,6.21v18.75c0,10.52-5.78,14.83-14.83,14.83s-14.72-4.42-14.72-14.61Z"/>
        <path class="cls-1" d="M486.49,50.92V18.1c0-2.24-.71-2.78-4.36-3v-.44h14.17c10.09,0,15.32,3.27,15.32,9.49s-5.4,8.56-9.98,9.7l7.96,12.1c3.71,5.78,5.83,7.74,8.07,7.96v.44c-.98.11-2.94.22-4.36.22-3.6,0-5.83-.71-8.89-6l-6.98-11.67c-1.14-1.96-1.64-2.18-2.78-2.18h-2.34v16.19c0,2.24.76,2.78,5.07,3v.44h-15.26v-.44c3.65-.22,4.36-.76,4.36-3ZM495.43,33.91c6,0,10.14-3.33,10.14-8.78,0-6.22-3.76-9.6-10.74-9.6h-2.51v18.37h3.11Z"/>
        <path class="cls-1" d="M525.02,50.92V18.1c0-2.24-.76-2.78-4.63-3v-.44h15.05v.44c-3.87.22-4.63.76-4.63,3v32.82c0,2.24.76,2.78,4.63,3v.44h-15.05v-.44c3.87-.22,4.63-.76,4.63-3ZM530.09,1.64c.44-.93,1.2-1.64,2.34-1.64,1.31,0,2.4,1.09,2.4,2.4,0,.82-.38,1.53-.87,1.91-1.2.98-5.62,4.47-7.96,6.65l-.33-.27c1.42-2.62,3.93-8.12,4.42-9.05Z"/>
        <path class="cls-1" d="M537.56,35.16c0-12.16,9.27-21.04,20.93-21.04,7.69,0,11.23,2.56,12.59,2.56.82,0,1.31-.49,1.69-2.02h.44l1.47,12.65h-.44c-3.71-8.94-9.81-12.21-15.76-12.21-8.12,0-14.34,6.81-14.34,17.55,0,12.76,7.25,19.68,16.03,19.68,6.43,0,11.78-3.87,14.77-9.98l.65.33c-3.33,7.25-9.81,12.21-18.7,12.21-11.29,0-19.35-8.34-19.35-19.74Z"/>
        <path class="cls-1" d="M582.05,50.92V18.1c0-2.24-.76-2.78-4.63-3v-.44h15.05v.44c-3.87.22-4.63.76-4.63,3v32.82c0,2.24.76,2.78,4.63,3v.44h-15.05v-.44c3.87-.22,4.63-.76,4.63-3Z"/>
        <path class="cls-1" d="M594.58,34.95c0-12.43,9.16-20.83,20.61-20.83s20.01,8.01,20.01,19.95-9.27,20.83-20.77,20.83-19.84-8.01-19.84-19.95ZM615.52,53.92c7.47,0,13.03-7.09,13.03-17.99s-5.67-20.83-14.5-20.83c-7.31,0-12.81,7.14-12.81,17.99s5.67,20.83,14.28,20.83Z"/>
      </g>
      <g>
        <path class="cls-1" d="M359.46,103.84v-32.82c0-2.24-.76-2.78-4.36-3v-.44h14.56v.44c-3.6.22-4.36.76-4.36,3v32.93c0,1.69.93,2.45,2.67,2.45h4.25c5.56,0,8.94-2.02,13.03-9.27h.44l-3.05,10.14h-27.53v-.44c3.6-.22,4.36-.87,4.36-3Z"/>
        <path class="cls-1" d="M391.29,103.84v-32.82c0-2.24-.76-2.78-4.63-3v-.44h15.05v.44c-3.87.22-4.63.76-4.63,3v32.82c0,2.24.76,2.78,4.63,3v.44h-15.05v-.44c3.87-.22,4.63-.76,4.63-3Z"/>
        <path class="cls-1" d="M409.34,100.62v-26.39c0-4.47-1.74-5.89-5.62-6.21v-.44h10.85l22.3,29.93v-23.28c0-4.47-1.74-5.89-7.14-6.21v-.44h14.01v.44c-3.87.33-5.62,1.74-5.62,6.21v33.58h-.49l-27.1-35.82v28.62c0,4.47,1.74,5.89,7.14,6.21v.44h-13.96v-.44c3.87-.33,5.62-1.74,5.62-6.21Z"/>
        <path class="cls-1" d="M450.63,103.84v-32.82c0-2.24-.76-2.78-4.36-3v-.44h16.25c13.19,0,22.57,7.41,22.57,19.41s-10.58,20.28-23.22,20.28h-15.59v-.44c3.6-.22,4.36-.76,4.36-3ZM462.67,106.4c8.78,0,15.76-6.54,15.76-17.55s-6.43-20.39-16.85-20.39h-5.12v34.62c0,2.4,1.04,3.33,6.22,3.33Z"/>
        <path class="cls-1" d="M488.79,87.86c0-12.43,9.16-20.83,20.61-20.83s20.01,8.01,20.01,19.95-9.27,20.83-20.77,20.83-19.84-8.01-19.84-19.95ZM509.72,106.84c7.47,0,13.03-7.09,13.03-17.99s-5.67-20.83-14.5-20.83c-7.31,0-12.81,7.14-12.81,17.99s5.67,20.83,14.28,20.83Z"/>
        <path class="cls-1" d="M534.55,106.07c-.55,0-.87.33-1.14,1.2h-.44l-1.25-11.83h.44c2.62,7.03,6.11,11.5,12.1,11.5,5.62,0,9.1-3.16,9.1-7.8,0-3.54-2.18-6.27-7.96-8.72l-3.22-1.36c-6.65-2.84-8.78-6.6-8.78-10.79,0-6.32,4.8-11.23,11.34-11.23,4.42,0,7.31,1.74,8.5,1.74.55,0,.82-.33,1.09-1.2h.44l1.15,10.47h-.44c-2.56-6.32-5.83-10.14-10.74-10.14-3.93,0-7.41,2.45-7.41,6.92,0,3.27,1.2,5.78,7.85,8.61l3.22,1.36c6.54,2.78,8.89,6.43,8.89,10.96,0,6.98-5.62,12.05-13.03,12.05-4.85,0-8.56-1.74-9.7-1.74Z"/>
        <path class="cls-1" d="M561.1,87.86c0-12.43,9.16-20.83,20.61-20.83s20.01,8.01,20.01,19.95-9.27,20.83-20.77,20.83-19.84-8.01-19.84-19.95ZM582.03,106.84c7.47,0,13.03-7.09,13.03-17.99s-5.67-20.83-14.5-20.83c-7.31,0-12.81,7.14-12.81,17.99s5.67,20.83,14.28,20.83Z"/>
      </g>
      <g>
        <path class="cls-1" d="M371.52,153.92l-3.98-10.9h-13.08l-3,8.12c-1.69,4.47-.76,6.65,4.53,6.98v.44h-12.48v-.44c2.78-.33,4.63-1.96,6.71-7.3l9.92-26.88-1.25-3.22c1.91-.44,4.03-1.47,5.18-2.94h.38c.49,1.91.76,2.73,2.13,6.27l10.19,27.31c2.07,5.34,2.94,6.43,6.49,6.76v.44h-15.37v-.44c4.47-.27,4.63-1.47,3.65-4.2ZM367.1,141.92l-6.16-16.79-6.11,16.79h12.27Z"/>
        <path class="cls-1" d="M390.32,155.11v-32.82c0-2.24-.76-2.78-4.36-3v-.44h16.25c13.19,0,22.57,7.41,22.57,19.41s-10.58,20.28-23.22,20.28h-15.59v-.44c3.6-.22,4.36-.76,4.36-3ZM402.37,157.68c8.78,0,15.76-6.54,15.76-17.55s-6.43-20.39-16.85-20.39h-5.12v34.62c0,2.4,1.04,3.33,6.22,3.33Z"/>
        <path class="cls-1" d="M423.03,119.3v-.44h15.37v.44c-4.42.27-4.42,1.47-3.38,4.2l10.3,27.31,9.27-24.53c1.74-4.42,1.04-6.65-4.63-6.98v-.44h13.03v.44c-3.33.33-5.07,1.96-7.14,7.3l-12.43,32.49h-1.04l-12.65-33.04c-2.07-5.34-3.16-6.43-6.71-6.76Z"/>
        <path class="cls-1" d="M461.02,139.14c0-12.43,9.16-20.83,20.61-20.83s20.01,8.01,20.01,19.95-9.27,20.83-20.77,20.83-19.84-8.01-19.84-19.95ZM481.96,158.11c7.47,0,13.03-7.09,13.03-17.99s-5.67-20.83-14.5-20.83c-7.31,0-12.81,7.14-12.81,17.99s5.67,20.83,14.28,20.83Z"/>
        <path class="cls-1" d="M505.34,139.36c0-12.16,9.27-21.04,20.93-21.04,7.69,0,11.23,2.56,12.59,2.56.82,0,1.31-.49,1.69-2.02h.44l1.47,12.65h-.44c-3.71-8.94-9.81-12.21-15.76-12.21-8.12,0-14.34,6.81-14.34,17.55,0,12.76,7.25,19.68,16.03,19.68,6.43,0,11.78-3.87,14.77-9.98l.65.33c-3.33,7.25-9.81,12.21-18.7,12.21-11.29,0-19.35-8.34-19.35-19.74Z"/>
        <path class="cls-1" d="M569.61,153.92l-3.98-10.9h-13.08l-3,8.12c-1.69,4.47-.76,6.65,4.53,6.98v.44h-12.48v-.44c2.78-.33,4.63-1.96,6.71-7.3l9.92-26.88-1.25-3.22c1.91-.44,4.03-1.47,5.18-2.94h.38c.49,1.91.76,2.73,2.13,6.27l10.19,27.31c2.07,5.34,2.94,6.43,6.49,6.76v.44h-15.37v-.44c4.47-.27,4.63-1.47,3.65-4.2ZM565.2,141.92l-6.16-16.79-6.11,16.79h12.27Z"/>
        <path class="cls-1" d="M579.97,139.36c0-12.16,9.27-21.04,20.93-21.04,7.69,0,11.23,2.56,12.59,2.56.82,0,1.31-.49,1.69-2.02h.44l1.47,12.65h-.44c-3.71-8.94-9.81-12.21-15.76-12.21-8.12,0-14.34,6.81-14.34,17.55,0,12.76,7.25,19.68,16.03,19.68,6.43,0,11.78-3.87,14.77-9.98l.65.33c-3.33,7.25-9.81,12.21-18.7,12.21-11.29,0-19.35-8.34-19.35-19.74Z"/>
        <path class="cls-1" d="M624.78,155.11v-32.82c0-2.24-.76-2.78-4.63-3v-.44h15.05v.44c-3.87.22-4.63.76-4.63,3v32.82c0,2.24.76,2.78,4.63,3v.44h-15.05v-.44c3.87-.22,4.63-.76,4.63-3Z"/>
        <path class="cls-1" d="M665.93,153.92l-3.98-10.9h-13.08l-3,8.12c-1.69,4.47-.76,6.65,4.52,6.98v.44h-12.48v-.44c2.78-.33,4.63-1.96,6.71-7.3l9.92-26.88-1.25-3.22c1.91-.44,4.03-1.47,5.18-2.94h.38c.49,1.91.76,2.73,2.13,6.27l10.19,27.31c2.07,5.34,2.94,6.43,6.49,6.76v.44h-15.37v-.44c4.47-.27,4.63-1.47,3.65-4.2ZM661.51,141.92l-6.16-16.79-6.11,16.79h12.27Z"/>
      </g>
      <path class="cls-1" d="M284.59,132.44l-36.95-99c-4.94-12.85-5.93-15.81-7.71-22.73h-1.38c-4.15,5.34-11.86,9.1-18.77,10.67l4.54,11.66-35.96,97.42c-.54,1.39-1.08,2.71-1.6,3.97l-.03.07-7.73,20.86h-12.91c-.98,0-1.88-.07-2.72-.22-4.57-.72-6.97-3.5-6.97-8.67V27.12c0-6.62,1.84-9.15,9.61-10.3.57-.09,1.18-.17,1.82-.23.33-.03.66-.07.99-.09.24-.03.49-.05.73-.07.45-.04.92-.08,1.41-.11.02,0,.04,0,.06,0,.2,0,.38-.03.58-.04s.4-.03.61-.04v-1.58h-38.8l-1.53,4.03-4.85,12.81c-.83,2.41-1.7,4.82-2.53,7.07l-34.39,90.51S49,20.59,47.03,14.67H2.37v1.58c14.03,1.19,20.55,4.35,20.36,20.55l-2.37,97.62c-.2,16.2-6.33,21.34-20.36,22.52v1.58h48.22v-1.58c-17.38-1.18-23.71-6.32-23.52-22.52l2.77-110.86,51.78,134.97h3.75l34.21-88.49,17.83-46.15v.04l.13-.33.08-.22v122.7c0,7.71-2.77,10.08-15.81,10.87v1.58h99.79l11.07-36.76h-1.58c-11.03,19.55-20.62,28.6-33.11,31.95-3.46.94-7.14,1.43-11.13,1.58l6.79-18.71h0c.42-1.56.98-3.2,1.63-4.93l9.53-25.81.08-.23,1.26-3.4h47.42l14.43,39.51c3.55,9.88,2.96,14.23-13.24,15.22v1.58h55.73v-1.58c-12.85-1.18-16.01-5.14-23.52-24.5ZM205.15,98.25l22.13-60.87,22.34,60.87h-44.47Z"/>
    </g>
  </g>
</svg>